<svg width="15" height="12" fill="none" xmlns="http://www.w3.org/2000/svg"><path d="M13.256 2.99c.01.132.01.263.01.394C13.266 7.387 10.219 12 4.65 12A8.557 8.557 0 010 10.64c.244.029.478.038.731.038a6.064 6.064 0 003.76-1.294 3.033 3.033 0 01-2.832-2.1c.188.028.375.047.572.047.272 0 .544-.037.797-.103A3.029 3.029 0 01.6 4.256V4.22a3.05 3.05 0 001.369.384 3.026 3.026 0 01-1.35-2.522c0-.562.15-1.078.412-1.528a8.607 8.607 0 006.244 3.169 3.418 3.418 0 01-.075-.694A3.027 3.027 0 0110.228 0c.872 0 1.66.366 2.213.956a5.962 5.962 0 001.921-.731 3.02 3.02 0 01-1.33 1.669 6.087 6.087 0 001.743-.469 6.51 6.51 0 01-1.519 1.566z" fill="#CCC"/></svg>